<svg id="Layer_1" data-name="Layer 1" xmlns="http://www.w3.org/2000/svg" viewBox="0 0 300 105"><defs><style>.cls-1{fill:#155d10;}.cls-2{fill:#fca801;}</style></defs><path class="cls-1" d="M51.88,7.32h19.3v.9H52.88V24H70V25H52.88V42.22h-1Z"/><path class="cls-1" d="M126.18,33.52c-1.8,5.75-5.15,9.25-12,9.25-9.4,0-13.35-8.35-13.35-17.65,0-9.75,4.35-18.25,13.7-18.25,6.8,0,10.6,4,11.65,9.3h-1c-1.35-5.15-5-8.35-10.6-8.35-8.25,0-12.7,7.25-12.7,17.25,0,8.75,3.8,16.75,12.35,16.75,5.8,0,9-2.9,10.9-8.3Z"/><path class="cls-1" d="M158.32,7.32h1v16h21.11V7.32h1v34.9h-1v-18H159.32v18h-1Z"/><path class="cls-1" d="M214.32,33.42c.75,5.9,4.9,8.35,9.9,8.35,5.81,0,9.56-3,9.56-8.2,0-4.7-2.35-7.2-9.51-9.3-6.7-1.95-9.7-4.15-9.7-9,0-5.4,4-8.4,9.6-8.4,6.46,0,9.51,3.8,10,8.5h-1c-.7-5.2-4.35-7.55-9.05-7.55-5.21,0-8.51,2.8-8.51,7.4,0,4.4,2.65,6.35,9,8.2,8.21,2.35,10.16,5.5,10.16,10.15,0,5.7-3.9,9.2-10.66,9.2s-10.2-3.8-10.9-9.3Z"/><path class="cls-2" d="M38.71,55.57h1v4.25h-1Zm0,11.75h1V92.23h-1Z"/><path class="cls-2" d="M97.06,83.52c-1.8,5.76-5.15,9.26-12,9.26-9.4,0-13.35-8.36-13.35-17.66,0-9.75,4.35-18.25,13.7-18.25,6.8,0,10.6,4,11.65,9.3h-1c-1.35-5.15-5-8.35-10.6-8.35-8.25,0-12.7,7.25-12.7,17.25,0,8.75,3.8,16.75,12.35,16.75,5.8,0,9-2.9,10.9-8.3Z"/><path class="cls-2" d="M128.66,75.87c0-5.4,0-6.7-.1-8.55h.95c.05.9.1,2.25.1,7.05,1.35-4.75,5.2-7.45,8.8-7.5v1c-5.2.3-8.75,4.75-8.75,11.35v13h-1Z"/><path class="cls-2" d="M166.61,79.22c-.15,8.45,3.25,12.46,8.65,12.46,4.7,0,6.9-2.81,7.85-6.36h1c-.95,3.8-3.45,7.3-8.95,7.3-7.55,0-9.6-6.55-9.6-12.8,0-8.45,3.7-13,9.6-13,7.35,0,9.25,6.3,9.25,11.25v1.15Zm16.85-.9c-.1-6.2-2.45-10.55-8.3-10.55-5.1,0-8,4-8.5,10.55Z"/><path class="cls-2" d="M214.16,67.32c4.05,13.9,6.4,21.46,6.9,23.85h.05c.6-2.25,2.1-6.75,7.65-23.85h1.3c3.8,12.9,6.95,22.1,7.3,23.75h.1c.45-2,2-7,7.3-23.75h1L238,92.23h-1.2c-3-9.66-6.85-21.71-7.35-24h0c-.55,2.25-4.05,12.65-7.65,24h-1.25l-7.35-24.91Z"/><polyline class="cls-2" points="273.13 52.68 150 52.68 150 52.32 275 52.32 275 52.68 273.13 52.68"/><polyline class="cls-1" points="148.13 52.68 25 52.68 25 52.32 150 52.32 150 52.68 148.13 52.68"/></svg>