<svg id="Layer_1" data-name="Layer 1" xmlns="http://www.w3.org/2000/svg" viewBox="0 0 300 105"><defs><style>.cls-1{fill:#fca801;}.cls-2{fill:#155d10;}</style></defs><path class="cls-1" d="M53.05,7.32h10.1c6.65,0,10.26,3.55,10.26,8.9,0,5.85-3.56,9.4-10.26,9.4h-9.1v16.6h-1Zm1,17.4h9c5.8,0,9.35-2.45,9.35-8.5,0-4.75-3.1-8-9.3-8h-9Z"/><path class="cls-1" d="M93.61,29.87c0,8.2-4.26,12.75-10.31,12.75-6.2,0-10.2-4.7-10.2-12.85s4.45-12.95,10.45-12.95C89.35,16.82,93.61,21.22,93.61,29.87Zm-19.46,0c0,7,3.35,11.81,9.15,11.81s9.26-4.46,9.26-11.91c0-6.95-3.16-12-9.11-12S74.15,22.92,74.15,29.87Z"/><path class="cls-1" d="M94.7,17.32c4,13.9,6.4,21.45,6.9,23.85h.05c.6-2.25,2.1-6.75,7.65-23.85h1.3c3.8,12.9,7,22.1,7.3,23.75h.1c.45-2,2-7,7.3-23.75h1l-7.8,24.9h-1.2c-3-9.65-6.85-21.7-7.35-24h0c-.55,2.25-4.05,12.65-7.65,24H101l-7.35-24.9Z"/><path class="cls-1" d="M127,29.22c-.15,8.45,3.25,12.46,8.65,12.46,4.7,0,6.9-2.81,7.85-6.36h1.05c-.95,3.8-3.45,7.3-8.95,7.3-7.55,0-9.6-6.55-9.6-12.8,0-8.45,3.7-13,9.6-13,7.35,0,9.25,6.3,9.25,11.25v1.15Zm16.85-.9c-.1-6.2-2.45-10.55-8.3-10.55-5.1,0-8,3.95-8.5,10.55Z"/><path class="cls-1" d="M147.7,25.87c0-5.4,0-6.7-.1-8.55h1c0,.9.1,2.25.1,7.05,1.35-4.75,5.2-7.45,8.8-7.5v1c-5.2.3-8.75,4.75-8.75,11.35v13h-1Z"/><path class="cls-1" d="M156.9,34.82c.5,4.6,3.25,6.86,7.85,6.86,4.85,0,7.05-2.56,7.05-5.66,0-3.4-1.5-5.1-7.3-6.55C158.45,28,157,26,157,22.92s2.2-6.1,7.5-6.1c5.7,0,7.8,3.35,8.05,6.85h-1c-.4-3.05-2.05-5.9-7.1-5.9-4.7,0-6.45,2.6-6.45,5.05,0,3.25,1.85,4.45,6.8,5.7,6.25,1.6,8,3.6,8,7.45,0,3.65-2.75,6.65-8.1,6.65-4.7,0-8.4-2.1-8.85-7.8Z"/><path class="cls-1" d="M192.5,35.12c-1.35,5.4-4.65,7.5-9,7.5-6.5,0-9.65-5.1-9.65-12.85,0-7.4,3.7-12.95,10.1-12.95,5.85,0,8.1,4.1,8.55,7.8h-1c-.5-3.35-2.45-6.85-7.65-6.85-6,0-8.95,5.4-8.95,12.05,0,7,2.85,11.86,8.65,11.86,4,0,6.65-2.11,7.9-6.56Z"/><path class="cls-1" d="M196,5.57V22.92c.75-2.5,2.65-6.1,8.45-6.1,4,0,8,2.1,8,9.05V42.22h-1V26.07c0-5.35-2.4-8.3-7-8.3-6.1,0-8.45,4.4-8.45,10.1V42.22h-1V5.57Z"/><path class="cls-1" d="M235.55,29.87c0,8.2-4.25,12.75-10.3,12.75s-10.2-4.7-10.2-12.85,4.45-12.95,10.45-12.95C231.3,16.82,235.55,21.22,235.55,29.87Zm-19.45,0c0,7,3.35,11.81,9.15,11.81,5.65,0,9.25-4.46,9.25-11.91,0-6.95-3.15-12-9.1-12S216.1,22.92,216.1,29.87Z"/><path class="cls-1" d="M256.9,29.87c0,8.2-4.25,12.75-10.3,12.75s-10.2-4.7-10.2-12.85,4.45-12.95,10.45-12.95C252.65,16.82,256.9,21.22,256.9,29.87Zm-19.45,0c0,7,3.35,11.81,9.15,11.81s9.25-4.46,9.25-11.91c0-6.95-3.15-12-9.1-12S237.45,22.92,237.45,29.87Z"/><path class="cls-1" d="M259.5,42.22V5.57h1V42.22Z"/><path class="cls-2" d="M95.71,83.52c-1.8,5.76-5.15,9.26-12,9.26-9.4,0-13.35-8.36-13.35-17.66,0-9.75,4.35-18.25,13.7-18.25,6.8,0,10.6,4,11.65,9.3h-1c-1.35-5.15-5-8.35-10.6-8.35-8.25,0-12.7,7.25-12.7,17.25,0,8.75,3.8,16.75,12.35,16.75,5.8,0,9-2.9,10.9-8.3Z"/><path class="cls-2" d="M102.46,92.23V55.57h1V92.23Z"/><path class="cls-2" d="M126.11,87a44.29,44.29,0,0,0,.25,5.26h-1a31,31,0,0,1-.25-5.26c-1.25,4-4.15,5.65-8.5,5.65-5.65,0-7.6-4-7.6-7,0-5.25,4-7.5,10.35-7.5h5.7v-3.6c0-2.5-.4-6.75-6.7-6.75-5,0-6.5,2.7-7,5.75h-1c.35-2.75,1.75-6.7,8.1-6.7,6.2,0,7.6,3.6,7.6,7.3Zm-1-8h-5.7c-5.25,0-9.3,1.55-9.3,6.51,0,3.5,2.55,6.15,6.6,6.15,5.05,0,8.4-2.65,8.4-9.36Z"/><path class="cls-2" d="M131.81,84.82c.5,4.6,3.25,6.86,7.85,6.86,4.85,0,7.05-2.56,7.05-5.65,0-3.41-1.5-5.11-7.3-6.56-6-1.5-7.5-3.45-7.5-6.55s2.2-6.1,7.5-6.1c5.7,0,7.8,3.35,8.05,6.85h-1c-.4-3-2.05-5.9-7.1-5.9-4.7,0-6.45,2.6-6.45,5,0,3.25,1.85,4.45,6.8,5.7,6.25,1.6,8,3.6,8,7.45,0,3.65-2.75,6.65-8.1,6.65-4.7,0-8.4-2.09-8.85-7.8Z"/><path class="cls-2" d="M152.86,84.82c.5,4.6,3.25,6.86,7.85,6.86,4.85,0,7-2.56,7-5.65,0-3.41-1.5-5.11-7.3-6.56C154.41,78,153,76,153,72.92s2.2-6.1,7.5-6.1c5.7,0,7.8,3.35,8,6.85h-1c-.4-3-2-5.9-7.1-5.9-4.7,0-6.45,2.6-6.45,5,0,3.25,1.85,4.45,6.8,5.7,6.25,1.6,8.05,3.6,8.05,7.45,0,3.65-2.75,6.65-8.1,6.65-4.7,0-8.4-2.09-8.85-7.8Z"/><path class="cls-2" d="M174.26,92.23V55.57h1V92.23Z"/><path class="cls-2" d="M183.06,55.57h1v4.25h-1Zm0,11.75h1V92.23h-1Z"/><path class="cls-2" d="M191.86,73.47c0-2.15-.05-5.1-.05-6.1h.95c.05,1.2.1,3.7.05,6,.8-3.15,3.05-6.55,8.7-6.55,3.9,0,7.8,2.1,7.8,9.1V92.28h-1V76.07c0-5-2.25-8.25-6.85-8.25-6,0-8.6,4.25-8.6,10.9V92.28h-1Z"/><path class="cls-2" d="M218.11,80.52c3.35-3.3,10.15-9.9,13.5-13.2h1.25c-3.25,3.3-6.75,6.65-10,9.8l11.25,15.11h-1.25L222.16,77.77c-1,1-2.9,2.85-4,4V92.23h-1V55.57h1Z"/><polyline class="cls-1" points="273.13 52.68 150 52.68 150 52.32 275 52.32 275 52.68 273.13 52.68"/><polyline class="cls-2" points="148.13 52.68 25 52.68 25 52.32 150 52.32 150 52.68 148.13 52.68"/><text/></svg>