<?xml version="1.0" encoding="utf-8"?>
<!-- Generator: Adobe Illustrator 25.0.0, SVG Export Plug-In . SVG Version: 6.00 Build 0)  -->
<svg version="1.1" id="Layer_1" xmlns="http://www.w3.org/2000/svg" xmlns:xlink="http://www.w3.org/1999/xlink" x="0px" y="0px"
	 viewBox="0 0 300 105" style="enable-background:new 0 0 300 105;" xml:space="preserve">
<style type="text/css">
	.st0{fill:#FCA801;}
	.st1{fill:#155D10;}
</style>
<g>
	<g>
		<path class="st0" d="M40.5,5.6h1v4.3h-1V5.6z M40.5,17.3h1v24.9h-1V17.3z"/>
		<path class="st0" d="M98.9,33.5c-1.8,5.8-5.2,9.3-12,9.3c-9.4,0-13.4-8.4-13.4-17.7c0-9.8,4.4-18.3,13.7-18.3
			c6.8,0,10.6,4,11.7,9.3h-1c-1.4-5.1-5-8.4-10.6-8.4c-8.3,0-12.7,7.3-12.7,17.3c0,8.8,3.8,16.8,12.4,16.8c5.8,0,9.1-2.9,10.9-8.3
			H98.9z"/>
		<path class="st0" d="M130.5,25.9c0-5.4-0.1-6.7-0.1-8.6h1c0,0.9,0.1,2.3,0.1,7.1c1.4-4.8,5.2-7.5,8.8-7.5v1
			c-5.2,0.3-8.8,4.8-8.8,11.4v13h-1V25.9z"/>
		<path class="st0" d="M168.8,29.2c-0.2,8.5,3.3,12.5,8.7,12.5c4.7,0,6.9-2.8,7.9-6.4h1c-0.9,3.8-3.5,7.3-9,7.3
			c-7.6,0-9.6-6.6-9.6-12.8c0-8.5,3.7-13,9.6-13c7.4,0,9.3,6.3,9.3,11.3v1.1H168.8z M185.7,28.3c-0.1-6.2-2.5-10.6-8.3-10.6
			c-5.1,0-8.1,4-8.5,10.6H185.7z"/>
		<path class="st0" d="M215.8,17.3c4.1,13.9,6.4,21.5,6.9,23.9h0c0.6-2.3,2.1-6.8,7.7-23.9h1.3c3.8,12.9,7,22.1,7.3,23.8h0.1
			c0.5-2,2-7.1,7.3-23.8h1l-7.8,24.9h-1.2c-3-9.7-6.9-21.7-7.4-24h0c-0.5,2.3-4,12.7-7.7,24h-1.3l-7.4-24.9H215.8z"/>
	</g>
</g>
<g>
	<g>
		<path class="st1" d="M26.9,83.5c-1.8,5.8-5.2,9.3-12,9.3c-9.4,0-13.4-8.4-13.4-17.7c0-9.8,4.4-18.3,13.7-18.3
			c6.8,0,10.6,4,11.7,9.3h-1c-1.4-5.2-5-8.4-10.6-8.4c-8.3,0-12.7,7.3-12.7,17.3c0,8.8,3.8,16.8,12.4,16.8c5.8,0,9.1-2.9,10.9-8.3
			H26.9z"/>
		<path class="st1" d="M51.6,79.9c0,8.2-4.3,12.8-10.3,12.8c-6.2,0-10.2-4.7-10.2-12.9c0-8.3,4.5-13,10.5-13
			C47.3,66.8,51.6,71.2,51.6,79.9z M32.1,79.9c0,7,3.4,11.8,9.2,11.8c5.7,0,9.3-4.5,9.3-11.9c0-7-3.2-12-9.1-12
			C35.4,67.8,32.1,72.9,32.1,79.9z"/>
		<path class="st1" d="M57.4,73c0-2.1-0.1-4.6-0.1-5.7h1c0,0.7,0.1,3.1,0,5.1c0.7-2.2,2.6-5.6,7.6-5.6c3.5,0,6.2,1.7,6.8,5.9
			c0.6-2.5,2.7-5.9,7.7-5.9c3.8,0,7.2,1.8,7.2,8.7v16.8h-1V75.5c0-4.7-1.6-7.8-6.2-7.8c-5.4,0-7.4,4.3-7.4,9.4v15.1h-1V75.7
			c0-5-1.8-7.9-6-7.9c-5.8,0-7.6,4.6-7.6,9.4v15.1h-1V73z"/>
		<path class="st1" d="M95.4,73c0-2.1-0.1-4.6-0.1-5.7h1c0,0.7,0.1,3.1,0,5.1c0.7-2.2,2.6-5.6,7.6-5.6c3.5,0,6.2,1.7,6.8,5.9
			c0.6-2.5,2.7-5.9,7.7-5.9c3.8,0,7.2,1.8,7.2,8.7v16.8h-1V75.5c0-4.7-1.6-7.8-6.2-7.8c-5.4,0-7.4,4.3-7.4,9.4v15.1h-1V75.7
			c0-5-1.8-7.9-6-7.9c-5.8,0-7.6,4.6-7.6,9.4v15.1h-1V73z"/>
		<path class="st1" d="M151.9,79.9c0,8.2-4.3,12.8-10.3,12.8c-6.2,0-10.2-4.7-10.2-12.9c0-8.3,4.5-13,10.5-13
			C147.6,66.8,151.9,71.2,151.9,79.9z M132.4,79.9c0,7,3.4,11.8,9.2,11.8c5.7,0,9.3-4.5,9.3-11.9c0-7-3.1-12-9.1-12
			C135.7,67.8,132.4,72.9,132.4,79.9z"/>
		<path class="st1" d="M157.7,73.5c0-2.2,0-5.1,0-6.1h1c0,1.2,0.1,3.7,0,6c0.8-3.1,3-6.5,8.7-6.5c3.9,0,7.8,2.1,7.8,9.1v16.3h-1
			V76.1c0-5-2.3-8.3-6.9-8.3c-6,0-8.6,4.3-8.6,10.9v13.6h-1V73.5z"/>
		<path class="st1" d="M194.6,57.3h10.1c6.7,0,10.3,3.5,10.3,8.9c0,5.9-3.6,9.4-10.3,9.4h-9.1v16.6h-1V57.3z M195.6,74.7h9
			c5.8,0,9.4-2.5,9.4-8.5c0-4.8-3.1-8-9.3-8h-9V74.7z"/>
		<path class="st1" d="M221.1,75.9c0-5.4,0-6.7-0.1-8.5h1c0.1,0.9,0.1,2.3,0.1,7c1.3-4.8,5.2-7.5,8.8-7.5v1
			c-5.2,0.3-8.8,4.8-8.8,11.4v13h-1V75.9z"/>
		<path class="st1" d="M253.4,79.9c0,8.2-4.3,12.8-10.3,12.8c-6.2,0-10.2-4.7-10.2-12.9c0-8.3,4.5-13,10.5-13
			C249.2,66.8,253.4,71.2,253.4,79.9z M234,79.9c0,7,3.4,11.8,9.2,11.8c5.7,0,9.3-4.5,9.3-11.9c0-7-3.2-12-9.1-12
			C237.2,67.8,234,72.9,234,79.9z"/>
		<path class="st1" d="M259.3,55.6h1v17.8c1.1-3.8,3.9-6.5,8.8-6.5c5.5,0,9.4,4.3,9.4,12.6c0,9.4-4.9,13.2-9.9,13.2
			c-4.5,0-7.2-2.1-8.4-6c0,1.7,0,4.6-0.2,5.6h-1c0.1-0.9,0.1-3.2,0.1-6.9V55.6z M277.4,79.4c0-7.9-3.6-11.7-8.4-11.7
			c-5,0-8.9,3.2-8.9,11.8c0,7.3,2,12.2,8.5,12.2C273.6,91.7,277.4,87.3,277.4,79.4z"/>
		<path class="st1" d="M282.7,84.8c0.5,4.6,3.3,6.9,7.9,6.9c4.9,0,7.1-2.6,7.1-5.7c0-3.4-1.5-5.1-7.3-6.6c-6-1.5-7.5-3.5-7.5-6.6
			c0-3.1,2.2-6.1,7.5-6.1c5.7,0,7.8,3.3,8.1,6.8h-1c-0.4-3-2-5.9-7.1-5.9c-4.7,0-6.5,2.6-6.5,5.1c0,3.3,1.8,4.5,6.8,5.7
			c6.3,1.6,8,3.6,8,7.5c0,3.7-2.8,6.7-8.1,6.7c-4.7,0-8.4-2.1-8.9-7.8H282.7z"/>
	</g>
</g>
<polyline class="st0" points="273.1,52.7 150,52.7 150,52.3 275,52.3 275,52.7 273.1,52.7 "/>
<polyline class="st1" points="148.1,52.7 25,52.7 25,52.3 150,52.3 150,52.7 148.1,52.7 "/>
</svg>
