<svg id="Layer_1" data-name="Layer 1" xmlns="http://www.w3.org/2000/svg" viewBox="0 0 300 105"><defs><style>.cls-1{fill:#fca801;}.cls-2{fill:#155d10;}</style></defs><path class="cls-1" d="M39.63,5.57h1V9.82h-1Zm0,11.75h1v24.9h-1Z"/><path class="cls-1" d="M98,33.52c-1.8,5.75-5.15,9.25-12,9.25-9.4,0-13.35-8.35-13.35-17.65,0-9.75,4.35-18.25,13.7-18.25,6.8,0,10.6,4,11.65,9.3H97C95.63,11,92,7.82,86.38,7.82c-8.25,0-12.7,7.25-12.7,17.25,0,8.75,3.8,16.75,12.35,16.75,5.8,0,9-2.9,10.9-8.3Z"/><path class="cls-1" d="M129.58,25.87c0-5.4-.05-6.7-.1-8.55h1c0,.9.1,2.25.1,7.05,1.35-4.75,5.2-7.45,8.8-7.5v1c-5.2.3-8.75,4.75-8.75,11.35v13h-1Z"/><path class="cls-1" d="M167.53,29.22c-.15,8.45,3.25,12.46,8.65,12.46,4.7,0,6.9-2.81,7.85-6.36h1.05c-1,3.8-3.45,7.3-9,7.3-7.55,0-9.6-6.55-9.6-12.8,0-8.45,3.7-13,9.6-13,7.35,0,9.25,6.3,9.25,11.25v1.15Zm16.85-.9c-.1-6.2-2.45-10.55-8.3-10.55-5.1,0-8.05,3.95-8.5,10.55Z"/><path class="cls-1" d="M215.07,17.32c4.06,13.9,6.4,21.45,6.9,23.85H222c.61-2.25,2.11-6.75,7.66-23.85H231c3.8,12.9,7,22.1,7.3,23.75h.1c.45-2,2.05-7,7.3-23.75h1l-7.8,24.9h-1.2c-3.05-9.65-6.85-21.7-7.35-24h-.05c-.55,2.25-4.05,12.65-7.65,24h-1.25L214,17.32Z"/><path class="cls-2" d="M37.46,57.32h19.3v.9H38.46V74H55.61v1H38.46V92.23h-1Z"/><path class="cls-2" d="M66.31,79.22c-.15,8.45,3.25,12.46,8.65,12.46,4.7,0,6.9-2.81,7.85-6.36h1c-1,3.8-3.45,7.3-9,7.3-7.55,0-9.6-6.55-9.6-12.8,0-8.45,3.7-13,9.6-13,7.35,0,9.25,6.3,9.25,11.25v1.15Zm16.85-.9c-.1-6.2-2.45-10.55-8.3-10.55-5.1,0-8,4-8.5,10.55Z"/><path class="cls-2" d="M94.76,79.22c-.15,8.45,3.25,12.46,8.65,12.46,4.7,0,6.9-2.81,7.85-6.36h1c-1,3.8-3.45,7.3-9,7.3-7.55,0-9.6-6.55-9.6-12.8,0-8.45,3.7-13,9.6-13,7.35,0,9.25,6.3,9.25,11.25v1.15Zm16.85-.9c-.1-6.2-2.45-10.55-8.3-10.55-5.1,0-8,4-8.5,10.55Z"/><path class="cls-2" d="M141.41,55.57V86.32c0,1.75.05,4.6.1,5.91h-.95c-.05-.61-.15-1.51-.15-6.06-1,3.81-3.45,6.45-8.75,6.45-4.9,0-9.45-3.59-9.45-12.5s4.5-13.3,10.15-13.3c5.95,0,7.45,3.6,8,5.55V55.57Zm-18.15,24.5c0,7.71,3.7,11.61,8.45,11.61,5.7,0,8.8-3.36,8.8-12.31,0-8.6-2.75-11.6-8.25-11.6S123.26,72.72,123.26,80.07Z"/><path class="cls-2" d="M154.56,55.57h1V73.32c1.1-3.75,3.85-6.5,8.8-6.5,5.5,0,9.4,4.3,9.4,12.6,0,9.36-4.9,13.2-9.85,13.2-4.5,0-7.15-2.14-8.35-6,.05,1.7-.05,4.61-.15,5.61h-.95c0-.86.1-3.2.1-6.91Zm18.15,23.85c0-7.85-3.6-11.65-8.4-11.65-5,0-8.85,3.15-8.85,11.75,0,7.26,2,12.16,8.45,12.16C168.91,91.68,172.71,87.32,172.71,79.42Z"/><path class="cls-2" d="M200.61,87a44.29,44.29,0,0,0,.25,5.26h-1a31,31,0,0,1-.25-5.26c-1.25,4-4.15,5.65-8.5,5.65-5.65,0-7.6-4-7.6-7,0-5.25,3.95-7.5,10.35-7.5h5.7v-3.6c0-2.5-.4-6.75-6.7-6.75-5,0-6.5,2.7-7,5.75h-1c.35-2.75,1.75-6.7,8.1-6.7s7.6,3.6,7.6,7.3Zm-1-8h-5.7c-5.25,0-9.3,1.55-9.3,6.51,0,3.5,2.55,6.15,6.6,6.15,5,0,8.4-2.65,8.4-9.36Z"/><path class="cls-2" d="M230.61,85.12c-1.35,5.41-4.65,7.5-9,7.5-6.5,0-9.65-5.09-9.65-12.85,0-7.4,3.7-13,10.1-13,5.85,0,8.1,4.1,8.55,7.8h-1c-.5-3.35-2.45-6.85-7.65-6.85-6,0-9,5.4-9,12,0,7.05,2.85,11.86,8.65,11.86,4,0,6.65-2.11,7.9-6.56Z"/><path class="cls-2" d="M242.86,80.52c3.35-3.3,10.15-9.9,13.5-13.2h1.25c-3.25,3.3-6.75,6.65-10,9.8l11.25,15.11h-1.25L246.91,77.77c-1,1-2.9,2.85-4,4V92.23h-1V55.57h1Z"/><polyline class="cls-1" points="273.13 52.68 150 52.68 150 52.32 275 52.32 275 52.68 273.13 52.68"/><polyline class="cls-2" points="148.13 52.68 25 52.68 25 52.32 150 52.32 150 52.68 148.13 52.68"/><text/></svg>