<svg id="Layer_1" data-name="Layer 1" xmlns="http://www.w3.org/2000/svg" viewBox="0 0 300 105"><defs><style>.cls-1{fill:#fca801;}.cls-2{fill:#155d10;}</style></defs><path class="cls-1" d="M39.63,5.57h1V9.82h-1Zm0,11.75h1v24.9h-1Z"/><path class="cls-1" d="M98,33.52c-1.8,5.75-5.15,9.25-12,9.25-9.4,0-13.35-8.35-13.35-17.65,0-9.75,4.35-18.25,13.7-18.25,6.8,0,10.6,4,11.65,9.3H97C95.63,11,92,7.82,86.38,7.82c-8.25,0-12.7,7.25-12.7,17.25,0,8.75,3.8,16.75,12.35,16.75,5.8,0,9-2.9,10.9-8.3Z"/><path class="cls-1" d="M129.58,25.87c0-5.4-.05-6.7-.1-8.55h1c0,.9.1,2.25.1,7.05,1.35-4.75,5.2-7.45,8.8-7.5v1c-5.2.3-8.75,4.75-8.75,11.35v13h-1Z"/><path class="cls-1" d="M167.53,29.22c-.15,8.45,3.25,12.46,8.65,12.46,4.7,0,6.9-2.81,7.85-6.36h1.05c-1,3.8-3.45,7.3-9,7.3-7.55,0-9.6-6.55-9.6-12.8,0-8.45,3.7-13,9.6-13,7.35,0,9.25,6.3,9.25,11.25v1.15Zm16.85-.9c-.1-6.2-2.45-10.55-8.3-10.55-5.1,0-8.05,3.95-8.5,10.55Z"/><path class="cls-1" d="M215.07,17.32c4.06,13.9,6.4,21.45,6.9,23.85H222c.61-2.25,2.11-6.75,7.66-23.85H231c3.8,12.9,7,22.1,7.3,23.75h.1c.45-2,2.05-7,7.3-23.75h1l-7.8,24.9h-1.2c-3.05-9.65-6.85-21.7-7.35-24h-.05c-.55,2.25-4.05,12.65-7.65,24h-1.25L214,17.32Z"/><path class="cls-2" d="M136,75.12c0-7.1,0-13.75.2-17.05h-.1c-1.3,3.8-9.15,23.45-13.4,34.16h-1.25c-4.3-11.51-11.55-29.81-13-34.06h0c.15,2.8.15,12.4.15,18.35V92.23h-1V57.32h1.5c5.4,13.95,12,30.75,13,33.85h0c1-2.75,8.45-21.35,13.35-33.85H137V92.23h-1Z"/><path class="cls-2" d="M144.21,79.22c-.15,8.45,3.25,12.46,8.65,12.46,4.7,0,6.9-2.81,7.85-6.36h1c-.95,3.8-3.45,7.3-8.95,7.3-7.55,0-9.6-6.55-9.6-12.8,0-8.45,3.7-13,9.6-13,7.35,0,9.25,6.3,9.25,11.25v1.15Zm16.85-.9c-.1-6.2-2.45-10.55-8.3-10.55-5.1,0-8,4-8.5,10.55Z"/><path class="cls-2" d="M167.16,79.22c-.15,8.45,3.25,12.46,8.65,12.46,4.7,0,6.9-2.81,7.85-6.36h1.05c-1,3.8-3.45,7.3-9,7.3-7.55,0-9.6-6.55-9.6-12.8,0-8.45,3.7-13,9.6-13,7.35,0,9.25,6.3,9.25,11.25v1.15Zm16.85-.9c-.1-6.2-2.45-10.55-8.3-10.55-5.1,0-8.05,4-8.5,10.55Z"/><path class="cls-2" d="M187.21,67.32h4.4v-7.5h.95v7.5h5.85v.9h-5.85V87.28c0,2.45.5,4.45,3.4,4.45a5.75,5.75,0,0,0,1.95-.3v.89a5.4,5.4,0,0,1-2,.3c-2.95,0-4.3-1.3-4.3-5.55V68.22h-4.4Z"/><polyline class="cls-1" points="273.13 52.68 150 52.68 150 52.32 275 52.32 275 52.68 273.13 52.68"/><polyline class="cls-2" points="148.13 52.68 25 52.68 25 52.32 150 52.32 150 52.68 148.13 52.68"/><text/></svg>