<svg id="Layer_1" data-name="Layer 1" xmlns="http://www.w3.org/2000/svg" viewBox="0 0 300 105"><defs><style>.cls-1{fill:#fca801;}.cls-2{fill:#155d10;}</style></defs><path class="cls-1" d="M39.63,5.57h1V9.82h-1Zm0,11.75h1v24.9h-1Z"/><path class="cls-1" d="M98,33.52c-1.8,5.75-5.15,9.25-12,9.25-9.4,0-13.35-8.35-13.35-17.65,0-9.75,4.35-18.25,13.7-18.25,6.8,0,10.6,4,11.65,9.3H97C95.63,11,92,7.82,86.38,7.82c-8.25,0-12.7,7.25-12.7,17.25,0,8.75,3.8,16.75,12.35,16.75,5.8,0,9-2.9,10.9-8.3Z"/><path class="cls-1" d="M129.58,25.87c0-5.4-.05-6.7-.1-8.55h1c0,.9.1,2.25.1,7.05,1.35-4.75,5.2-7.45,8.8-7.5v1c-5.2.3-8.75,4.75-8.75,11.35v13h-1Z"/><path class="cls-1" d="M167.53,29.22c-.15,8.45,3.25,12.46,8.65,12.46,4.7,0,6.9-2.81,7.85-6.36h1.05c-1,3.8-3.45,7.3-9,7.3-7.55,0-9.6-6.55-9.6-12.8,0-8.45,3.7-13,9.6-13,7.35,0,9.25,6.3,9.25,11.25v1.15Zm16.85-.9c-.1-6.2-2.45-10.55-8.3-10.55-5.1,0-8.05,3.95-8.5,10.55Z"/><path class="cls-1" d="M215.07,17.32c4.06,13.9,6.4,21.45,6.9,23.85H222c.61-2.25,2.11-6.75,7.66-23.85H231c3.8,12.9,7,22.1,7.3,23.75h.1c.45-2,2.05-7,7.3-23.75h1l-7.8,24.9h-1.2c-3.05-9.65-6.85-21.7-7.35-24h-.05c-.55,2.25-4.05,12.65-7.65,24h-1.25L214,17.32Z"/><path class="cls-2" d="M77.23,57.32h10.1c6.66,0,10.26,3.55,10.26,8.9,0,5.85-3.55,9.4-10.26,9.4h-9.1V92.23h-1Zm1,17.4h9c5.8,0,9.35-2.45,9.35-8.5,0-4.75-3.1-8-9.3-8h-9Z"/><path class="cls-2" d="M101.53,79.22c-.15,8.45,3.25,12.46,8.65,12.46,4.71,0,6.91-2.81,7.86-6.36h1c-1,3.8-3.45,7.3-9,7.3-7.55,0-9.6-6.55-9.6-12.8,0-8.45,3.7-13,9.6-13,7.36,0,9.26,6.3,9.26,11.25v1.15Zm16.86-.9c-.1-6.2-2.45-10.55-8.31-10.55-5.1,0-8,4-8.5,10.55Z"/><path class="cls-2" d="M140.23,87a44.29,44.29,0,0,0,.25,5.26h-.95a31,31,0,0,1-.25-5.26c-1.25,4-4.15,5.65-8.5,5.65-5.65,0-7.6-4-7.6-7,0-5.25,3.95-7.5,10.35-7.5h5.7v-3.6c0-2.5-.4-6.75-6.7-6.75-5,0-6.5,2.7-7,5.75h-1c.35-2.75,1.75-6.7,8.1-6.7s7.6,3.6,7.6,7.3Zm-1-8h-5.7c-5.25,0-9.3,1.55-9.3,6.51,0,3.5,2.55,6.15,6.6,6.15,5,0,8.4-2.65,8.4-9.36Z"/><path class="cls-2" d="M148,75.87c0-5.4-.05-6.7-.1-8.55h.95c.05.9.1,2.25.1,7.05,1.35-4.75,5.2-7.45,8.8-7.5v1c-5.2.3-8.75,4.75-8.75,11.35v13h-1Z"/><path class="cls-2" d="M160.48,84.82c.5,4.6,3.25,6.86,7.85,6.86,4.85,0,7-2.56,7-5.65,0-3.41-1.5-5.11-7.3-6.56-6.05-1.5-7.5-3.45-7.5-6.55s2.2-6.1,7.5-6.1c5.7,0,7.8,3.35,8,6.85h-1c-.4-3-2-5.9-7.1-5.9-4.7,0-6.45,2.6-6.45,5,0,3.25,1.85,4.45,6.8,5.7,6.25,1.6,8.05,3.6,8.05,7.45,0,3.65-2.75,6.65-8.1,6.65-4.7,0-8.4-2.09-8.85-7.8Z"/><path class="cls-2" d="M201.18,79.87c0,8.2-4.25,12.75-10.3,12.75s-10.2-4.7-10.2-12.85,4.45-13,10.45-13C196.93,66.82,201.18,71.22,201.18,79.87Zm-19.45,0c0,7,3.35,11.81,9.15,11.81s9.25-4.46,9.25-11.91c0-7-3.15-12-9.1-12S181.73,72.92,181.73,79.87Z"/><path class="cls-2" d="M207,73.47c0-2.15-.05-5.1-.05-6.1h1c0,1.2.1,3.7,0,6,.8-3.15,3.05-6.55,8.7-6.55,3.9,0,7.8,2.1,7.8,9.1V92.28h-1V76.07c0-5-2.25-8.25-6.85-8.25-5.95,0-8.6,4.25-8.6,10.9V92.28h-1Z"/><polyline class="cls-1" points="273.13 52.68 150 52.68 150 52.32 275 52.32 275 52.68 273.13 52.68"/><polyline class="cls-2" points="148.13 52.68 25 52.68 25 52.32 150 52.32 150 52.68 148.13 52.68"/><text/></svg>