<svg id="Layer_1" data-name="Layer 1" xmlns="http://www.w3.org/2000/svg" viewBox="0 0 300 105"><defs><style>.cls-1{fill:#fca801;}.cls-2{fill:#155d10;}</style></defs><path class="cls-1" d="M39.63,5.57h1V9.82h-1Zm0,11.75h1v24.9h-1Z"/><path class="cls-1" d="M98,33.52c-1.8,5.75-5.15,9.25-12,9.25-9.4,0-13.35-8.35-13.35-17.65,0-9.75,4.35-18.25,13.7-18.25,6.8,0,10.6,4,11.65,9.3H97C95.63,11,92,7.82,86.38,7.82c-8.25,0-12.7,7.25-12.7,17.25,0,8.75,3.8,16.75,12.35,16.75,5.8,0,9-2.9,10.9-8.3Z"/><path class="cls-1" d="M129.58,25.87c0-5.4-.05-6.7-.1-8.55h1c0,.9.1,2.25.1,7.05,1.35-4.75,5.2-7.45,8.8-7.5v1c-5.2.3-8.75,4.75-8.75,11.35v13h-1Z"/><path class="cls-1" d="M167.53,29.22c-.15,8.45,3.25,12.46,8.65,12.46,4.7,0,6.9-2.81,7.85-6.36h1.05c-1,3.8-3.45,7.3-9,7.3-7.55,0-9.6-6.55-9.6-12.8,0-8.45,3.7-13,9.6-13,7.35,0,9.25,6.3,9.25,11.25v1.15Zm16.85-.9c-.1-6.2-2.45-10.55-8.3-10.55-5.1,0-8.05,3.95-8.5,10.55Z"/><path class="cls-1" d="M215.07,17.32c4.06,13.9,6.4,21.45,6.9,23.85H222c.61-2.25,2.11-6.75,7.66-23.85H231c3.8,12.9,7,22.1,7.3,23.75h.1c.45-2,2.05-7,7.3-23.75h1l-7.8,24.9h-1.2c-3.05-9.65-6.85-21.7-7.35-24h-.05c-.55,2.25-4.05,12.65-7.65,24h-1.25L214,17.32Z"/><path class="cls-2" d="M24.54,57.32h10.1c6.65,0,10.25,3.55,10.25,8.9,0,5.85-3.55,9.4-10.25,9.4h-9.1V92.23h-1Zm1,17.4h9c5.8,0,9.35-2.45,9.35-8.5,0-4.75-3.1-8-9.3-8h-9Z"/><path class="cls-2" d="M51.54,55.57V72.92c.75-2.5,2.65-6.1,8.45-6.1,3.95,0,8,2.1,8,9.05V92.23h-1V76.07c0-5.35-2.4-8.3-6.95-8.3-6.1,0-8.45,4.4-8.45,10.1V92.23h-1V55.57Z"/><path class="cls-2" d="M73.09,67.32c6,16.2,8.2,22.46,8.65,24h.05c.75-2.21,3.6-9.46,9.15-24h1l-10,26c-2.55,6.71-4,9.66-8.1,9.66a10.24,10.24,0,0,1-2.6-.3l.15-1a11.4,11.4,0,0,0,2.5.3c3.35,0,4.85-2.8,7.3-9.45L72,67.32Z"/><path class="cls-2" d="M95.19,84.82c.5,4.6,3.25,6.86,7.85,6.86,4.85,0,7-2.56,7-5.65,0-3.41-1.5-5.11-7.3-6.56-6.06-1.5-7.5-3.45-7.5-6.55s2.2-6.1,7.5-6.1c5.7,0,7.8,3.35,8,6.85h-1c-.4-3-2-5.9-7.1-5.9-4.7,0-6.45,2.6-6.45,5,0,3.25,1.85,4.45,6.8,5.7,6.25,1.6,8,3.6,8,7.45,0,3.65-2.75,6.65-8.1,6.65-4.71,0-8.41-2.09-8.85-7.8Z"/><path class="cls-2" d="M116.58,55.57h1v4.25h-1Zm0,11.75h1V92.23h-1Z"/><path class="cls-2" d="M142.08,85.12c-1.35,5.41-4.65,7.5-9,7.5-6.5,0-9.65-5.09-9.65-12.85,0-7.4,3.7-13,10.1-13,5.85,0,8.1,4.1,8.55,7.8h-1c-.5-3.35-2.45-6.85-7.65-6.85-6,0-9,5.4-9,12,0,7.05,2.85,11.86,8.65,11.86,4,0,6.65-2.11,7.9-6.56Z"/><path class="cls-2" d="M163,87a44.29,44.29,0,0,0,.25,5.26h-.95A31,31,0,0,1,162,87c-1.25,4-4.15,5.65-8.5,5.65-5.65,0-7.6-4-7.6-7,0-5.25,3.95-7.5,10.35-7.5H162v-3.6c0-2.5-.4-6.75-6.7-6.75-5.05,0-6.5,2.7-7,5.75h-1c.35-2.75,1.75-6.7,8.1-6.7s7.6,3.6,7.6,7.3Zm-1-8h-5.7c-5.25,0-9.3,1.55-9.3,6.51,0,3.5,2.55,6.15,6.6,6.15,5,0,8.4-2.65,8.4-9.36Z"/><path class="cls-2" d="M170.78,92.23V55.57h1V92.23Z"/><path class="cls-2" d="M191.18,57.32h10.1c6.65,0,10.25,3.55,10.25,8.9,0,5.85-3.55,9.4-10.25,9.4h-9.1V92.23h-1Zm1,17.4h8.95c5.8,0,9.35-2.45,9.35-8.5,0-4.75-3.1-8-9.3-8h-9Z"/><path class="cls-2" d="M216.68,75.87c0-5.4-.05-6.7-.1-8.55h.95c.05.9.1,2.25.1,7.05,1.35-4.75,5.2-7.45,8.8-7.5v1c-5.2.3-8.75,4.75-8.75,11.35v13h-1Z"/><path class="cls-2" d="M248.63,79.87c0,8.2-4.25,12.75-10.3,12.75-6.2,0-10.2-4.7-10.2-12.85s4.45-13,10.45-13C244.38,66.82,248.63,71.22,248.63,79.87Zm-19.45,0c0,7,3.35,11.81,9.15,11.81,5.65,0,9.25-4.46,9.25-11.91,0-7-3.15-12-9.1-12S229.18,72.92,229.18,79.87Z"/><path class="cls-2" d="M254.48,55.57h1V73.32c1.1-3.75,3.85-6.5,8.8-6.5,5.5,0,9.4,4.3,9.4,12.6,0,9.36-4.9,13.2-9.85,13.2-4.5,0-7.15-2.14-8.35-6,.05,1.7,0,4.61-.15,5.61h-1c.05-.86.1-3.2.1-6.91Zm18.15,23.85c0-7.85-3.6-11.65-8.4-11.65-5,0-8.85,3.15-8.85,11.75,0,7.26,2,12.16,8.45,12.16C268.83,91.68,272.63,87.32,272.63,79.42Z"/><path class="cls-2" d="M278.13,92.23V86.87h1v5.36Z"/><polyline class="cls-1" points="273.13 52.68 150 52.68 150 52.32 275 52.32 275 52.68 273.13 52.68"/><polyline class="cls-2" points="148.13 52.68 25 52.68 25 52.32 150 52.32 150 52.68 148.13 52.68"/><text/></svg>