<svg id="Layer_1" data-name="Layer 1" xmlns="http://www.w3.org/2000/svg" viewBox="0 0 300 105"><defs><style>.cls-1{fill:#155d10;}.cls-2{fill:#fca801;}</style></defs><path class="cls-1" d="M46.18,7.22h21.2v2.5H48.88v13.2H66.23v2.5H48.88v16.8h-2.7Z"/><path class="cls-1" d="M125.53,32.87c-1.65,5.55-5.75,9.75-13.15,9.75-10,0-15.35-8-15.35-17.85,0-9.45,5.2-18,15.4-18,7.55,0,12,4.2,13.15,10.05h-2.7c-1.6-4.55-4.55-7.55-10.6-7.55-8.7,0-12.35,8-12.35,15.5s3.6,15.4,12.55,15.4c5.7,0,8.6-2.95,10.35-7.25Z"/><path class="cls-1" d="M158.07,7.22h2.7V22.47h21V7.22h2.7v35h-2.7V25h-21V42.22h-2.7Z"/><path class="cls-1" d="M219.52,32.82c1,4.65,4.15,7.4,9.9,7.4,6.41,0,8.86-3.2,8.86-7s-1.75-6.4-9.45-8.3c-7.41-1.85-10.61-4.25-10.61-9.3,0-4.6,3.35-8.9,10.86-8.9,7.7,0,10.95,4.7,11.4,9h-2.8c-.8-3.75-3.26-6.45-8.76-6.45-5,0-7.8,2.35-7.8,6.25s2.3,5.35,8.76,7c9.85,2.45,11.3,6.4,11.3,10.6,0,5.15-3.75,9.6-11.85,9.6-8.76,0-12-5.1-12.61-9.8Z"/><path class="cls-2" d="M34.61,55.37h2.5v4.85h-2.5Zm0,11.85h2.5v25h-2.5Z"/><path class="cls-2" d="M97.51,82.87c-1.65,5.55-5.75,9.75-13.15,9.75-10,0-15.35-8-15.35-17.85,0-9.45,5.2-18,15.4-18,7.55,0,12,4.2,13.15,10h-2.7c-1.6-4.55-4.55-7.55-10.6-7.55-8.7,0-12.35,8-12.35,15.5s3.6,15.4,12.55,15.4c5.7,0,8.6-3,10.35-7.25Z"/><path class="cls-2" d="M128.36,74c0-4.2-.05-6-.05-6.8h2.45c.05.8.1,2.4.1,5.6a9.47,9.47,0,0,1,8.7-6.2v2.7c-5.2.35-8.7,4-8.7,9.9v13h-2.5Z"/><path class="cls-2" d="M169.71,80c0,6.45,3.3,10.46,8.1,10.46s6.3-2.66,7.2-4.7h2.55c-1.05,3.29-3.7,7-9.85,7-7.6,0-10.55-6.54-10.55-12.9,0-7.15,3.55-13.3,10.85-13.3,7.7,0,10.15,6.65,10.15,11.35,0,.7,0,1.4,0,2Zm15.85-2.2c-.05-4.95-2.75-8.85-7.65-8.85-5.15,0-7.5,3.6-8,8.85Z"/><path class="cls-2" d="M219.71,67.22c3.7,12.9,5.85,20.31,6.25,22.51h0c.4-2,2.9-9.86,6.8-22.51h2.7c4.65,15.45,6.05,19.9,6.5,21.85h.05c.7-2.75,1.85-6.5,6.45-21.85h2.65l-7.9,25h-2.75c-2.7-8.86-5.95-19.71-6.45-22H234c-.5,2.45-3.35,11.4-6.6,22h-3l-7.35-25Z"/><polyline class="cls-2" points="273.13 52.68 150 52.68 150 52.32 275 52.32 275 52.68 273.13 52.68"/><polyline class="cls-1" points="148.13 52.68 25 52.68 25 52.32 150 52.32 150 52.68 148.13 52.68"/></svg>